<svg xmlns="http://www.w3.org/2000/svg" width="560" height="1120" viewBox="0 0 560 1120" fill="none">
  <rect width="560" height="1120" fill="#F6F7FB"/>
  <rect width="560" height="108" fill="#05204E"/>
  <rect x="24" y="40" width="32" height="32" rx="10" fill="#1E3A8A"/>
  <rect x="72" y="44" width="180" height="24" rx="8" fill="#FFFFFF"/>
  <rect x="24" y="132" width="512" height="56" rx="16" fill="#FFFFFF"/>
  <rect x="44" y="150" width="24" height="24" rx="8" fill="#EBF3FC"/>
  <rect x="80" y="152" width="360" height="16" rx="6" fill="#9CA3AF"/>
  <rect x="24" y="212" width="512" height="132" rx="22" fill="#FFFFFF"/>
  <rect x="44" y="232" width="140" height="14" rx="6" fill="#6B7280"/>
  <rect x="44" y="258" width="240" height="28" rx="8" fill="#111827"/>
  <rect x="44" y="300" width="180" height="14" rx="6" fill="#16A34A"/>
  <rect x="24" y="364" width="512" height="104" rx="20" fill="#FFF8EB"/>
  <rect x="44" y="384" width="160" height="14" rx="6" fill="#D4890E"/>
  <rect x="44" y="408" width="320" height="18" rx="6" fill="#111827"/>
  <rect x="44" y="434" width="260" height="14" rx="6" fill="#6B7280"/>
  <rect x="24" y="488" width="200" height="18" rx="6" fill="#05204E"/>
  <rect x="24" y="524" width="512" height="88" rx="18" fill="#FFFFFF"/>
  <rect x="44" y="544" width="48" height="48" rx="14" fill="#EBF3FC"/>
  <rect x="108" y="548" width="180" height="16" rx="6" fill="#111827"/>
  <rect x="108" y="572" width="240" height="12" rx="6" fill="#6B7280"/>
  <rect x="24" y="628" width="512" height="88" rx="18" fill="#FFFFFF"/>
  <rect x="44" y="648" width="48" height="48" rx="14" fill="#E8F5EE"/>
  <rect x="108" y="652" width="180" height="16" rx="6" fill="#111827"/>
  <rect x="108" y="676" width="240" height="12" rx="6" fill="#6B7280"/>
  <rect x="24" y="732" width="512" height="88" rx="18" fill="#FFFFFF"/>
  <rect x="44" y="752" width="48" height="48" rx="14" fill="#FFF7ED"/>
  <rect x="108" y="756" width="180" height="16" rx="6" fill="#111827"/>
  <rect x="108" y="780" width="240" height="12" rx="6" fill="#6B7280"/>
  <rect x="24" y="836" width="512" height="88" rx="18" fill="#FFFFFF"/>
  <rect x="44" y="856" width="48" height="48" rx="14" fill="#EFF6FF"/>
  <rect x="108" y="860" width="180" height="16" rx="6" fill="#111827"/>
  <rect x="108" y="884" width="240" height="12" rx="6" fill="#6B7280"/>
</svg>
