<svg xmlns="http://www.w3.org/2000/svg" width="560" height="1120" viewBox="0 0 560 1120" fill="none">
  <rect width="560" height="1120" fill="#F6F7FB"/>
  <rect width="560" height="108" fill="#05204E"/>
  <rect x="24" y="40" width="32" height="32" rx="10" fill="#1E3A8A"/>
  <rect x="72" y="44" width="160" height="24" rx="8" fill="#FFFFFF"/>
  <rect x="24" y="132" width="512" height="148" rx="24" fill="#05204E"/>
  <rect x="44" y="156" width="120" height="14" rx="6" fill="#ADC8E6"/>
  <rect x="44" y="182" width="280" height="32" rx="8" fill="#FFFFFF"/>
  <rect x="44" y="228" width="200" height="14" rx="6" fill="#F5A623"/>
  <rect x="24" y="304" width="248" height="18" rx="6" fill="#05204E"/>
  <rect x="24" y="340" width="512" height="96" rx="20" fill="#FFFFFF"/>
  <rect x="44" y="360" width="160" height="16" rx="6" fill="#111827"/>
  <rect x="44" y="386" width="120" height="22" rx="8" fill="#16A34A"/>
  <rect x="380" y="368" width="120" height="40" rx="12" fill="#EBF3FC"/>
  <rect x="24" y="452" width="512" height="96" rx="20" fill="#FFFFFF"/>
  <rect x="44" y="472" width="180" height="16" rx="6" fill="#111827"/>
  <rect x="44" y="498" width="120" height="22" rx="8" fill="#DC2626"/>
  <rect x="380" y="480" width="120" height="40" rx="12" fill="#EBF3FC"/>
  <rect x="24" y="564" width="512" height="96" rx="20" fill="#FFFFFF"/>
  <rect x="44" y="584" width="160" height="16" rx="6" fill="#111827"/>
  <rect x="44" y="610" width="120" height="22" rx="8" fill="#16A34E"/>
  <rect x="380" y="592" width="120" height="40" rx="12" fill="#EBF3FC"/>
  <rect x="24" y="676" width="512" height="96" rx="20" fill="#FFFFFF"/>
  <rect x="44" y="696" width="180" height="16" rx="6" fill="#111827"/>
  <rect x="44" y="722" width="120" height="22" rx="8" fill="#16A34A"/>
  <rect x="380" y="704" width="120" height="40" rx="12" fill="#EBF3FC"/>
  <rect x="24" y="800" width="512" height="72" rx="18" fill="#FFF8EB"/>
  <rect x="44" y="822" width="280" height="16" rx="6" fill="#111827"/>
  <rect x="44" y="846" width="200" height="12" rx="6" fill="#6B7280"/>
  <circle cx="480" cy="836" r="28" fill="#F5A623"/>
  <rect x="468" y="828" width="24" height="24" rx="6" fill="#05204E"/>
</svg>
